<svg width="40" height="40" viewBox="0 0 40 40" fill="none" xmlns="http://www.w3.org/2000/svg">
<path d="M10.007 33.8499L10.007 33.8501H10.02H34.5V36.1834H10C9.09163 36.1834 7.95533 35.8792 7.05679 35.1672C6.17628 34.4694 5.5 33.3631 5.5 31.6834V8.3501C5.5 6.67046 6.17628 5.5641 7.05679 4.86635C7.95533 4.1543 9.09163 3.8501 10 3.8501H31.6667C33.2289 3.8501 34.5 5.12124 34.5 6.68343V29.5001H33.415H33.4011L33.3873 29.5009C33.3432 29.5033 33.3062 29.5103 33.279 29.5168H10.0183V29.5166L10.006 29.5169C9.62469 29.5264 9.16372 29.5978 8.75734 29.84C8.33091 30.0941 8.00298 30.5146 7.88256 31.1328L7.88252 31.1328L7.88149 31.1385C7.85109 31.3047 7.83333 31.4848 7.83333 31.6834C7.83333 32.4813 8.11402 33.0535 8.58604 33.411C9.0312 33.7481 9.57496 33.8387 10.007 33.8499ZM31.6667 27.1834H32.1667V26.6834V6.68343V6.18343H31.6667H28.3333H27.8333V6.68343V17.5411L25.2236 16.2362L25 16.1244L24.7764 16.2362L22.1667 17.5411V6.68343V6.18343H21.6667H10V6.18325L9.98667 6.18361C9.56326 6.1949 9.02452 6.28565 8.58223 6.62293C8.11373 6.98019 7.83333 7.55172 7.83333 8.3501V26.6834V27.1834H8.33333H31.6667Z" fill="white" stroke="white"/>
</svg>
