<svg width="41" height="40" viewBox="0 0 41 40" fill="none" xmlns="http://www.w3.org/2000/svg">
<path d="M3.83331 16.6667L18.4176 4.99924C19.635 4.02532 21.365 4.02532 22.5823 4.99924L37.1666 16.6667" stroke="white" stroke-width="3" stroke-linecap="round" stroke-linejoin="round"/>
<path d="M16.2961 6.74907L9.6294 12.1657C8.41899 13.1492 7.81377 13.6409 7.49022 14.3207C7.16669 15.0004 7.16669 15.7802 7.16669 17.3399V23.3334C7.16669 29.6187 7.16669 32.7615 9.1193 34.714C11.0719 36.6667 14.2146 36.6667 20.5 36.6667C26.7854 36.6667 29.9282 36.6667 31.8807 34.714C33.8334 32.7615 33.8334 29.6187 33.8334 23.3334V17.3399C33.8334 15.7802 33.8334 15.0004 33.5099 14.3207C33.1862 13.6409 32.581 13.1492 31.3707 12.1657L24.704 6.74907C22.6904 5.11297 21.6835 4.29492 20.5 4.29492C19.3165 4.29492 18.3097 5.11297 16.2961 6.74907Z" stroke="white" stroke-width="3"/>
<path d="M16.75 27.0833H24.25" stroke="white" stroke-width="3" stroke-linecap="round"/>
</svg>
